<svg id="artwork" xmlns="http://www.w3.org/2000/svg" xmlns:xlink="http://www.w3.org/1999/xlink" viewBox="0 0 135 40"><defs><style>.cls-1{fill:#a6a6a6;}.cls-10,.cls-2,.cls-9{fill:#fff;}.cls-3{fill:url(#linear-gradient);}.cls-4{fill:url(#linear-gradient-2);}.cls-5{fill:url(#linear-gradient-3);}.cls-6{fill:url(#linear-gradient-4);}.cls-7{opacity:0.2;}.cls-7,.cls-8,.cls-9{isolation:isolate;}.cls-8{opacity:0.12;}.cls-9{opacity:0.25;}.cls-10{stroke:#fff;stroke-miterlimit:10;stroke-width:0.2px;}</style><linearGradient id="linear-gradient" x1="21.8" y1="173.29" x2="5.02" y2="156.51" gradientTransform="matrix(1, 0, 0, -1, 0, 182)" gradientUnits="userSpaceOnUse"><stop offset="0" stop-color="#00a0ff"/><stop offset="0.01" stop-color="#00a1ff"/><stop offset="0.26" stop-color="#00beff"/><stop offset="0.51" stop-color="#00d2ff"/><stop offset="0.76" stop-color="#00dfff"/><stop offset="1" stop-color="#00e3ff"/></linearGradient><linearGradient id="linear-gradient-2" x1="33.83" y1="162" x2="9.64" y2="162" gradientTransform="matrix(1, 0, 0, -1, 0, 182)" gradientUnits="userSpaceOnUse"><stop offset="0" stop-color="#ffe000"/><stop offset="0.41" stop-color="#ffbd00"/><stop offset="0.78" stop-color="orange"/><stop offset="1" stop-color="#ff9c00"/></linearGradient><linearGradient id="linear-gradient-3" x1="24.83" y1="159.7" x2="2.07" y2="136.95" gradientTransform="matrix(1, 0, 0, -1, 0, 182)" gradientUnits="userSpaceOnUse"><stop offset="0" stop-color="#ff3a44"/><stop offset="1" stop-color="#c31162"/></linearGradient><linearGradient id="linear-gradient-4" x1="7.3" y1="181.82" x2="17.46" y2="171.66" gradientTransform="matrix(1, 0, 0, -1, 0, 182)" gradientUnits="userSpaceOnUse"><stop offset="0" stop-color="#32a071"/><stop offset="0.07" stop-color="#2da771"/><stop offset="0.48" stop-color="#15cf74"/><stop offset="0.8" stop-color="#06e775"/><stop offset="1" stop-color="#00f076"/></linearGradient></defs><title>google-play-badge (2)</title><rect width="135" height="40" rx="5"/><path class="cls-1" d="M130,.8A4.2,4.2,0,0,1,134.2,5V35a4.2,4.2,0,0,1-4.2,4.2H5A4.2,4.2,0,0,1,.8,35V5A4.2,4.2,0,0,1,5,.8H130m0-.8H5A5,5,0,0,0,0,5V35a5,5,0,0,0,5,5H130a5,5,0,0,0,5-5V5a5,5,0,0,0-5-5Z"/><path class="cls-2" d="M68.14,21.75A4.26,4.26,0,1,0,72.41,26,4.19,4.19,0,0,0,68.14,21.75Zm0,6.83A2.58,2.58,0,1,1,70.54,26,2.46,2.46,0,0,1,68.14,28.58Zm-9.32-6.83A4.26,4.26,0,1,0,63.09,26,4.19,4.19,0,0,0,58.82,21.75Zm0,6.83A2.58,2.58,0,1,1,61.22,26,2.46,2.46,0,0,1,58.82,28.58ZM47.74,23.06v1.8h4.32a3.77,3.77,0,0,1-1,2.27,4.42,4.42,0,0,1-3.34,1.32,4.8,4.8,0,0,1,0-9.6A4.64,4.64,0,0,1,51,20.14l1.27-1.27a6.3,6.3,0,0,0-4.53-1.82,6.61,6.61,0,1,0,0,13.21,6.07,6.07,0,0,0,4.61-1.85,6,6,0,0,0,1.56-4.23,6.27,6.27,0,0,0-.09-1.12Zm45.31,1.4a4,4,0,0,0-3.64-2.71,4,4,0,0,0-4,4.25,4.23,4.23,0,0,0,7.76,2.37l-1.45-1a2.41,2.41,0,0,1-2.09,1.17,2.15,2.15,0,0,1-2.06-1.29l5.69-2.35Zm-5.8,1.42a2.33,2.33,0,0,1,2.23-2.48,1.64,1.64,0,0,1,1.57.9ZM82.63,30H84.5V17.5H82.63Zm-3.06-7.3H79.5a2.94,2.94,0,0,0-2.24-.95,4.26,4.26,0,0,0,0,8.51,2.88,2.88,0,0,0,2.24-1h.07v.61c0,1.63-.87,2.5-2.27,2.5a2.36,2.36,0,0,1-2.15-1.51l-1.62.67a4,4,0,0,0,3.77,2.52c2.19,0,4-1.29,4-4.43V22H79.57Zm-2.15,5.88a2.58,2.58,0,0,1,0-5.15A2.39,2.39,0,0,1,79.7,26,2.38,2.38,0,0,1,77.42,28.58ZM101.81,17.5H97.33V30H99.2V25.26h2.61a3.89,3.89,0,1,0,0-7.76Zm0,6H99.2V19.24h2.65a2.14,2.14,0,1,1,0,4.28Zm11.54-1.79a3.49,3.49,0,0,0-3.33,1.91l1.65.69a1.78,1.78,0,0,1,1.71-.91,1.8,1.8,0,0,1,2,1.61v.12a4.18,4.18,0,0,0-1.95-.48c-1.78,0-3.6,1-3.6,2.82a2.89,2.89,0,0,0,3.11,2.75A2.65,2.65,0,0,0,115.32,29h.06v1h1.8V25.19C117.18,23,115.52,21.73,113.39,21.73Zm-.23,6.85c-.61,0-1.46-.31-1.46-1.06,0-1,1.06-1.34,2-1.34a3.32,3.32,0,0,1,1.7.42A2.26,2.26,0,0,1,113.16,28.58ZM123.74,22l-2.14,5.42h-.06L119.32,22h-2l3.33,7.58-1.9,4.21h2L125.82,22Zm-16.8,8h1.86V17.5h-1.86Z"/><path class="cls-3" d="M10.44,7.54A2,2,0,0,0,10,8.94V31.06a1.94,1.94,0,0,0,.47,1.4l.07.08L22.9,20.15v-.3L10.51,7.47Z"/><path class="cls-4" d="M27,24.28,22.9,20.15v-.3L27,15.72l.09.06L32,18.56c1.4.79,1.4,2.09,0,2.89l-4.89,2.78Z"/><path class="cls-5" d="M27.12,24.23,22.9,20,10.44,32.46a1.62,1.62,0,0,0,2.07.07l14.61-8.3"/><path class="cls-6" d="M27.12,15.78,12.51,7.48a1.61,1.61,0,0,0-2.07.06L22.9,20Z"/><path class="cls-7" d="M27,24.13,12.51,32.38a1.66,1.66,0,0,1-2,0h0l-.07.07h0l.07.08h0a1.66,1.66,0,0,0,2,0l14.61-8.3Z"/><path class="cls-8" d="M10.44,32.32A2,2,0,0,1,10,30.91v.15a1.94,1.94,0,0,0,.47,1.4l.07-.07Z"/><path class="cls-8" d="M32,21.3l-5,2.83.09.1L32,21.44A1.75,1.75,0,0,0,33.06,20h0A1.86,1.86,0,0,1,32,21.3Z"/><path class="cls-9" d="M12.51,7.62,32,18.7A1.86,1.86,0,0,1,33.06,20h0A1.75,1.75,0,0,0,32,18.56L12.51,7.48C11.12,6.68,10,7.34,10,8.94v.15C10,7.49,11.12,6.83,12.51,7.62Z"/><path class="cls-10" d="M41.44,12.38h6.8v.5h-6.8ZM48,7.78v.49H41.7V7.78h2.86V6.25l.67,0s0,.09-.15.11V7.78Zm-4.85.91a11.71,11.71,0,0,1,.71,3.17,2.06,2.06,0,0,0-.52.11,11.56,11.56,0,0,0-.67-3.16Zm4,.09c0,.06-.09.1-.19.11a21.73,21.73,0,0,1-1,3.28L45.51,12a22.23,22.23,0,0,0,.91-3.41Z"/><path class="cls-10" d="M51.51,11.55a7.52,7.52,0,0,0-.72-.92l.39-.22a9.39,9.39,0,0,1,1.41,2l-.42.25a7.64,7.64,0,0,0-.39-.71c-.92.29-1.86.59-2.47.77,0,.06,0,.09-.09.12l-.23-.6.53-.13V6.67h2.7v3.47H50V12Zm.24-4.4H50v1h1.75ZM50,9.67h1.75v-1H50Zm5.64-3v4.64c0,.65-.33.67-1.4.67a2.07,2.07,0,0,0-.18-.53h.65c.37,0,.41,0,.41-.15V7.17H53.44v6.05h-.52V6.67Z"/><path class="cls-10" d="M63.35,7.31H60.17l-.08,0v1.3l0,0a19,19,0,0,1,2.8,1.64l-.35.45a19.29,19.29,0,0,0-2.49-1.55v4.07h-.53V7.31h-3v-.5h6.76Z"/><path class="cls-10" d="M68.68,8.38A16.49,16.49,0,0,0,69,10.92a9,9,0,0,0,1-2.11L70.6,9c0,.06-.07.09-.16.09a9.18,9.18,0,0,1-1.23,2.49c.25.73.56,1.18,1,1.18.22,0,.31-.39.36-1.33a1.13,1.13,0,0,0,.4.27c-.09,1.19-.27,1.55-.8,1.55s-1-.46-1.27-1.21a5.83,5.83,0,0,1-1.32,1.21,1.44,1.44,0,0,0-.37-.37,5.52,5.52,0,0,0,.55-.4H66.23v.78h-.46v-.78H64.11V12h1.66V11.6H64.44V9.74h1.33V9.3H64.23V8.91h1.54v-.5l.62,0c0,.05,0,.09-.15.1v.36h1.58V9.3H66.24v.44h1.37V11.6H66.23V12h1.62v.3a6.85,6.85,0,0,0,.81-.89,16,16,0,0,1-.48-3.07H64V7.94h1.75V7.29H64.36V6.87h1.41V6.24l.64,0s0,.09-.15.1v.49h1.4v.42h-1.4v.65h1.9c0-.54,0-1.11,0-1.68l.66,0q0,.09-.15.12,0,.78,0,1.53h2.18v.44Zm-3.85,1.67v.46h1v-.46Zm0,.77v.46h1v-.46Zm2.38-.31v-.46h-1v.46Zm0,.77v-.46h-1v.46Zm2.32-4.92a6,6,0,0,1,1.08,1l-.38.29a5.64,5.64,0,0,0-1.06-1.08Z"/></svg>