<svg id="artwork" xmlns="http://www.w3.org/2000/svg" xmlns:xlink="http://www.w3.org/1999/xlink" viewBox="0 0 135 40"><defs><style>.cls-1{fill:#a6a6a6;}.cls-10,.cls-2,.cls-9{fill:#fff;}.cls-3{fill:url(#linear-gradient);}.cls-4{fill:url(#linear-gradient-2);}.cls-5{fill:url(#linear-gradient-3);}.cls-6{fill:url(#linear-gradient-4);}.cls-7{opacity:0.2;}.cls-7,.cls-8,.cls-9{isolation:isolate;}.cls-8{opacity:0.12;}.cls-9{opacity:0.25;}.cls-10{stroke:#fff;stroke-miterlimit:10;stroke-width:0.2px;}</style><linearGradient id="linear-gradient" x1="21.8" y1="173.29" x2="5.02" y2="156.51" gradientTransform="matrix(1, 0, 0, -1, 0, 182)" gradientUnits="userSpaceOnUse"><stop offset="0" stop-color="#00a0ff"/><stop offset="0.01" stop-color="#00a1ff"/><stop offset="0.26" stop-color="#00beff"/><stop offset="0.51" stop-color="#00d2ff"/><stop offset="0.76" stop-color="#00dfff"/><stop offset="1" stop-color="#00e3ff"/></linearGradient><linearGradient id="linear-gradient-2" x1="33.83" y1="162" x2="9.64" y2="162" gradientTransform="matrix(1, 0, 0, -1, 0, 182)" gradientUnits="userSpaceOnUse"><stop offset="0" stop-color="#ffe000"/><stop offset="0.41" stop-color="#ffbd00"/><stop offset="0.78" stop-color="orange"/><stop offset="1" stop-color="#ff9c00"/></linearGradient><linearGradient id="linear-gradient-3" x1="24.83" y1="159.7" x2="2.07" y2="136.95" gradientTransform="matrix(1, 0, 0, -1, 0, 182)" gradientUnits="userSpaceOnUse"><stop offset="0" stop-color="#ff3a44"/><stop offset="1" stop-color="#c31162"/></linearGradient><linearGradient id="linear-gradient-4" x1="7.3" y1="181.82" x2="17.46" y2="171.66" gradientTransform="matrix(1, 0, 0, -1, 0, 182)" gradientUnits="userSpaceOnUse"><stop offset="0" stop-color="#32a071"/><stop offset="0.07" stop-color="#2da771"/><stop offset="0.48" stop-color="#15cf74"/><stop offset="0.8" stop-color="#06e775"/><stop offset="1" stop-color="#00f076"/></linearGradient></defs><title>google-play-badge (1) (1)</title><rect width="135" height="40" rx="5"/><path class="cls-1" d="M130,.8A4.2,4.2,0,0,1,134.2,5V35a4.2,4.2,0,0,1-4.2,4.2H5A4.2,4.2,0,0,1,.8,35V5A4.2,4.2,0,0,1,5,.8H130m0-.8H5A5,5,0,0,0,0,5V35a5,5,0,0,0,5,5H130a5,5,0,0,0,5-5V5a5,5,0,0,0-5-5Z"/><path class="cls-2" d="M68.14,21.75A4.26,4.26,0,1,0,72.41,26,4.19,4.19,0,0,0,68.14,21.75Zm0,6.83A2.58,2.58,0,1,1,70.54,26,2.46,2.46,0,0,1,68.14,28.58Zm-9.32-6.83A4.26,4.26,0,1,0,63.09,26,4.19,4.19,0,0,0,58.82,21.75Zm0,6.83A2.58,2.58,0,1,1,61.22,26,2.46,2.46,0,0,1,58.82,28.58ZM47.74,23.06v1.8h4.32a3.77,3.77,0,0,1-1,2.27,4.42,4.42,0,0,1-3.34,1.32,4.8,4.8,0,0,1,0-9.6A4.64,4.64,0,0,1,51,20.14l1.27-1.27a6.3,6.3,0,0,0-4.53-1.82,6.61,6.61,0,1,0,0,13.21,6.07,6.07,0,0,0,4.61-1.85,6,6,0,0,0,1.56-4.23,6.27,6.27,0,0,0-.09-1.12Zm45.31,1.4a4,4,0,0,0-3.64-2.71,4,4,0,0,0-4,4.25,4.23,4.23,0,0,0,7.76,2.37l-1.45-1a2.41,2.41,0,0,1-2.09,1.17,2.15,2.15,0,0,1-2.06-1.29l5.69-2.35Zm-5.8,1.42a2.33,2.33,0,0,1,2.23-2.48,1.64,1.64,0,0,1,1.57.9ZM82.63,30H84.5V17.5H82.63Zm-3.06-7.3H79.5a2.94,2.94,0,0,0-2.24-.95,4.26,4.26,0,0,0,0,8.51,2.88,2.88,0,0,0,2.24-1h.07v.61c0,1.63-.87,2.5-2.27,2.5a2.36,2.36,0,0,1-2.15-1.51l-1.62.67a4,4,0,0,0,3.77,2.52c2.19,0,4-1.29,4-4.43V22H79.57Zm-2.15,5.88a2.58,2.58,0,0,1,0-5.15A2.39,2.39,0,0,1,79.7,26,2.38,2.38,0,0,1,77.42,28.58ZM101.81,17.5H97.33V30H99.2V25.26h2.61a3.89,3.89,0,1,0,0-7.76Zm0,6H99.2V19.24h2.65a2.14,2.14,0,1,1,0,4.28Zm11.54-1.79a3.49,3.49,0,0,0-3.33,1.91l1.65.69a1.78,1.78,0,0,1,1.71-.91,1.8,1.8,0,0,1,2,1.61v.12a4.18,4.18,0,0,0-1.95-.48c-1.78,0-3.6,1-3.6,2.82a2.89,2.89,0,0,0,3.11,2.75A2.65,2.65,0,0,0,115.32,29h.06v1h1.8V25.19C117.18,23,115.52,21.73,113.39,21.73Zm-.23,6.85c-.61,0-1.46-.31-1.46-1.06,0-1,1.06-1.34,2-1.34a3.32,3.32,0,0,1,1.7.42A2.26,2.26,0,0,1,113.16,28.58ZM123.74,22l-2.14,5.42h-.06L119.32,22h-2l3.33,7.58-1.9,4.21h2L125.82,22Zm-16.8,8h1.86V17.5h-1.86Z"/><path class="cls-3" d="M10.44,7.54A2,2,0,0,0,10,8.94V31.06a1.94,1.94,0,0,0,.47,1.4l.07.08L22.9,20.15v-.3L10.51,7.47Z"/><path class="cls-4" d="M27,24.28,22.9,20.15v-.3L27,15.72l.09.06L32,18.56c1.4.79,1.4,2.09,0,2.89l-4.89,2.78Z"/><path class="cls-5" d="M27.12,24.23,22.9,20,10.44,32.46a1.62,1.62,0,0,0,2.07.07l14.61-8.3"/><path class="cls-6" d="M27.12,15.78,12.51,7.48a1.61,1.61,0,0,0-2.07.06L22.9,20Z"/><path class="cls-7" d="M27,24.13,12.51,32.38a1.66,1.66,0,0,1-2,0h0l-.07.07h0l.07.08h0a1.66,1.66,0,0,0,2,0l14.61-8.3Z"/><path class="cls-8" d="M10.44,32.32A2,2,0,0,1,10,30.91v.15a1.94,1.94,0,0,0,.47,1.4l.07-.07Z"/><path class="cls-8" d="M32,21.3l-5,2.83.09.1L32,21.44A1.75,1.75,0,0,0,33.06,20h0A1.86,1.86,0,0,1,32,21.3Z"/><path class="cls-9" d="M12.51,7.62,32,18.7A1.86,1.86,0,0,1,33.06,20h0A1.75,1.75,0,0,0,32,18.56L12.51,7.48C11.12,6.68,10,7.34,10,8.94v.15C10,7.49,11.12,6.83,12.51,7.62Z"/><path class="cls-10" d="M44.69,7.56v1.3l.09-.11a16.9,16.9,0,0,1,2.59,1.51l-.38.49a16.57,16.57,0,0,0-2.3-1.46v3.84h-.58V7.56H41.33V7h6.44v.54Z"/><path class="cls-10" d="M54.78,9.08a9.69,9.69,0,0,1-1.1,2.5c.2.62.47,1,.79,1s.25-.31.3-1.16a1.2,1.2,0,0,0,.42.27c-.09,1.09-.26,1.42-.77,1.42s-.83-.37-1.1-1a5.92,5.92,0,0,1-1,1.07,1.91,1.91,0,0,0-.38-.37,5.13,5.13,0,0,0,1.23-1.27,14,14,0,0,1-.42-3H48.61V8.13h1.76V7.51H49V7.07h1.39V6.49h.52v.58h1.28v.44H50.89v.62h1.78c0-.52,0-1.08,0-1.63h.53c0,.57,0,1.12,0,1.63H55.1v.43H53.21a16.72,16.72,0,0,0,.29,2.35,9.12,9.12,0,0,0,.79-2ZM52.45,12l-1.31.14v1h-.51V12.2l-1.89.2-.06-.5,2-.16V11h-1a1.08,1.08,0,0,0-.58.1,3,3,0,0,0-.17-.5c.11,0,.22-.17.34-.36s.15-.29.27-.53h-.82V9.29h1A6.09,6.09,0,0,0,50,8.58l.53.15c-.07.19-.15.37-.24.56h2.15v.44H50.09a8.88,8.88,0,0,1-.47.82h1V10h.51v.59h1.15V11H51.14v.67l1.31-.12Zm2-4.18a5.05,5.05,0,0,0-.88-1l.39-.25a4.5,4.5,0,0,1,.89.92Z"/><path class="cls-10" d="M57.13,7.93V9.4a8.67,8.67,0,0,1-.69,3.8,1.74,1.74,0,0,0-.46-.3,7.77,7.77,0,0,0,.61-3.5v-2h2.89a7.07,7.07,0,0,0-.39-.85l.53-.13a7.11,7.11,0,0,1,.47,1h2.44v.52Zm5.49,4.35v.52h-5.4v-.52H60.1a13.16,13.16,0,0,0,1.54-3.85l.57.21a16.54,16.54,0,0,1-1.55,3.64ZM58.4,11.5A19,19,0,0,0,57.61,9l.47-.19a19.93,19.93,0,0,1,.83,2.47Zm1.39-.4a19.81,19.81,0,0,0-.6-2.49l.49-.13A19.51,19.51,0,0,1,60.31,11Z"/><path class="cls-10" d="M69.71,12.41c0,.35-.1.51-.33.6A4.56,4.56,0,0,1,68,13.1a2.14,2.14,0,0,0-.18-.52c.51,0,1,0,1.14,0s.2-.05.2-.19V10.92h-2v2.15h-.54V10.92H64.85a4.22,4.22,0,0,1-.91,2.26,1.82,1.82,0,0,0-.42-.36,4.67,4.67,0,0,0,.88-3.2V7h5.31Zm-3-2V9.19H64.93v.43c0,.24,0,.51,0,.78ZM64.93,7.51V8.68h1.74V7.51Zm4.25,0h-2V8.68h2Zm0,2.89V9.19h-2V10.4Z"/><path class="cls-10" d="M71.25,13a1.29,1.29,0,0,0,.92-1.07H72a.49.49,0,0,1-.54-.52.51.51,0,0,1,.55-.52c.4,0,.62.33.62.84a1.73,1.73,0,0,1-1.26,1.65Z"/><path class="cls-10" d="M78,11.31a2.45,2.45,0,0,0,.19.46A11.44,11.44,0,0,0,76.7,13a2.18,2.18,0,0,0-.28-.46.73.73,0,0,0,.34-.62V9.28H75.67V8.76h1.62v3.11Zm-.8-3.21A9.23,9.23,0,0,0,76.15,7l.35-.32a9.43,9.43,0,0,1,1.1,1.07Zm5.08.73v.42H77.92V8.83h1.9V8.32H78.31V7.93h1.51V7.47H78.14V7.05h1.68V6.49h.53v.56H82.1v.42H80.35v.46h1.53v.39H80.35v.51Zm-.57,3.7c0,.28-.06.42-.25.5a3.17,3.17,0,0,1-1,.08,3.27,3.27,0,0,0-.16-.47,7.69,7.69,0,0,0,.81,0c.11,0,.13,0,.13-.12V12H79v1.13h-.51V9.67h3.3ZM79,10.09v.56h2.27v-.56Zm2.27,1.53V11H79v.59Z"/><path class="cls-10" d="M87,11.9l0,.49-3.75.53-.08-.54,1.68-.21V10.9H83.49v-.5h1.39V9.53h.53v.87h1.37v.5H85.41v1.21ZM86,7.82a8.78,8.78,0,0,1,1.15,1.63l-.43.25q-.09-.19-.24-.45c-1.15.08-2.32.14-3.15.19l0-.52.67,0a13.93,13.93,0,0,0,.54-1.45H83.28V7H87v.48H85.07c-.18.46-.39,1-.6,1.43l1.68-.07a9.26,9.26,0,0,0-.58-.75Zm1.85,3.55h-.52v-4h.52Zm1.72-4.69v5.73c0,.37-.09.54-.33.63a4.37,4.37,0,0,1-1.26.1,3.3,3.3,0,0,0-.18-.56c.47,0,.93,0,1.07,0s.17,0,.17-.18V6.68Z"/></svg>