<svg xmlns="http://www.w3.org/2000/svg" viewBox="0 0 426.95 87.13"><defs><style>.cls-1{fill:#07acab;}</style></defs><title>caspar-logo</title><g id="Layer_2" data-name="Layer 2"><g id="design"><path class="cls-1" d="M43.68,0C55.9,0,64.73,3.87,73,11.25a2.25,2.25,0,0,1,.12,3.39L65.7,22.26a1.93,1.93,0,0,1-3,0A28.69,28.69,0,0,0,44,15.12c-15.48,0-27,13-27,28.2s11.61,27.95,27.1,27.95a29,29,0,0,0,18.52-6.9,2.24,2.24,0,0,1,3,0l7.51,7.75a2.29,2.29,0,0,1-.13,3.26,41.52,41.52,0,0,1-29.4,11.75A43.57,43.57,0,1,1,43.68,0Z"/><path class="cls-1" d="M157.24,74.06l4.36-7.51a2.81,2.81,0,0,1,4.11-.85c.61.37,10.4,7.51,18.27,7.51,6.3,0,11-4.12,11-9.32,0-6.17-5.2-10.41-15.37-14.52-11.37-4.6-22.75-11.86-22.75-26.14,0-10.77,8-23.23,27.23-23.23a42.62,42.62,0,0,1,24.2,8.1,3,3,0,0,1,.73,4l-4.6,6.9c-1,1.45-2.78,2.41-4.23,1.45-1-.61-10.17-6.66-16.82-6.66-6.9,0-10.65,4.61-10.65,8.47,0,5.69,4.48,9.56,14.28,13.56,11.74,4.72,25.29,11.73,25.29,27.35,0,12.46-10.77,24-27.83,24-15.25,0-24.21-7.15-26.63-9.45C156.75,76.6,156.15,76,157.24,74.06Z"/><path class="cls-1" d="M224.3,3.51a2.3,2.3,0,0,1,2.3-2.3H255c14.89,0,27.11,12.1,27.11,26.74a27.22,27.22,0,0,1-27,27.23H240V83.61a2.38,2.38,0,0,1-2.3,2.3H226.6a2.3,2.3,0,0,1-2.3-2.3Zm29.77,36.9a12.47,12.47,0,0,0,12.46-12.58c0-6.66-5.69-11.74-12.46-11.74H240V40.41Z"/><path class="cls-1" d="M356.07,82.77,318.8,1.33A2.05,2.05,0,0,0,316.74,0h-1.2a2.16,2.16,0,0,0-2.06,1.33L275.84,82.77a2.13,2.13,0,0,0,2.06,3.14h10.53a3.61,3.61,0,0,0,2.29-.75L308,47.45l7.62-17.08H316L328.12,57H306.87a1.76,1.76,0,0,0-1.66,2.43l4.52,9.75a3.22,3.22,0,0,0,2.86,1.25h21.46L340,83.49c.85,1.7,1.69,2.42,3.5,2.42H354A2.13,2.13,0,0,0,356.07,82.77Z"/><path class="cls-1" d="M154.84,82.77,117.58,1.33A2.06,2.06,0,0,0,115.52,0h-1.21a2.18,2.18,0,0,0-2.06,1.33L74.62,82.77a2.13,2.13,0,0,0,2.06,3.14H87.21a3.61,3.61,0,0,0,2.29-.75l17.33-37.71,7.6-17.08h.37L126.9,57H105.65A1.76,1.76,0,0,0,104,59.42l4.52,9.75a3.22,3.22,0,0,0,2.86,1.25h21.46l5.93,13.06c.85,1.7,1.69,2.42,3.51,2.42h10.52A2.13,2.13,0,0,0,154.84,82.77Z"/><path class="cls-1" d="M363.66,3.51a2.3,2.3,0,0,1,2.3-2.3h34.6a26.22,26.22,0,0,1,26.39,26c0,11.14-7.39,20.21-17.91,24.45L425.61,82.4a2.29,2.29,0,0,1-2.05,3.51H410.85a2.08,2.08,0,0,1-1.94-1.09L392.82,52.76H379.39V83.61a2.38,2.38,0,0,1-2.3,2.3H366a2.3,2.3,0,0,1-2.3-2.3ZM399.23,39.8a12.32,12.32,0,0,0,12-12.33,12,12,0,0,0-12-11.74H379.51V39.8Z"/></g></g></svg>