<svg xmlns="http://www.w3.org/2000/svg" xmlns:xlink="http://www.w3.org/1999/xlink" width="81" height="16" viewBox="0 0 81 16" version="1.1">
  <title>
    Caspar Logo
  </title>
  <defs>
    <polygon id="path-1" points="7.01 16 0.01 16 0.01 0.03 7.01 0.03 14 0.03 14 16 7.01 16"/>
  </defs>
  <g id="Website-final" stroke="none" stroke-width="1" fill="none" fill-rule="evenodd">
    <g id="4" transform="translate(-27.000000, -23.000000)">
      <g id="Caspar-Logo-white" transform="translate(27.000000, 23.000000)">
        <g id="Group-3">
          <mask id="logo" fill="white">
            <use xlink:href="#path-1"/>
          </mask>
          <g id="Clip-2"/>
          <path d="M8.28 0.03C10.6 0.03 12.28 0.74 13.84 2.09 14.04 2.27 14.04 2.54 13.86 2.72L12.46 4.11C12.3 4.29 12.07 4.29 11.89 4.11 10.92 3.29 9.64 2.8 8.35 2.8 5.42 2.8 3.24 5.18 3.24 7.97 3.24 10.74 5.44 13.09 8.38 13.09 9.75 13.09 10.92 12.58 11.89 11.83 12.07 11.68 12.32 11.7 12.46 11.83L13.88 13.25C14.07 13.4 14.02 13.69 13.86 13.85 12.3 15.31 10.33 16 8.28 16 3.69 16 0 12.47 0 8.04 0 3.6 3.69 0.03 8.28 0.03" id="Fill-1" fill="#FFFFFF" mask="url(#mask-2)"/>
        </g>
        <path d="M29.82 13.61L30.65 12.23C30.83 11.92 31.22 11.92 31.43 12.07 31.54 12.14 33.4 13.45 34.89 13.45 36.09 13.45 36.98 12.7 36.98 11.74 36.98 10.61 36 9.83 34.07 9.08 31.91 8.24 29.75 6.91 29.75 4.29 29.75 2.32 31.27 0.03 34.92 0.03 37.26 0.03 39.05 1.19 39.51 1.52 39.74 1.65 39.81 2.03 39.64 2.25L38.77 3.51C38.59 3.78 38.24 3.96 37.97 3.78 37.79 3.67 36.04 2.56 34.78 2.56 33.47 2.56 32.76 3.4 32.76 4.11 32.76 5.15 33.61 5.86 35.47 6.6 37.69 7.46 40.26 8.75 40.26 11.61 40.26 13.89 38.22 16 34.99 16 32.1 16 30.4 14.69 29.94 14.27 29.73 14.07 29.61 13.96 29.82 13.61" id="Fill-4" fill="#FFFFFF"/>
        <path d="M48.19 7.44C49.47 7.44 50.55 6.44 50.55 5.13 50.55 3.91 49.47 2.98 48.19 2.98L45.52 2.98 45.52 7.44 48.19 7.44ZM42.54 0.68C42.54 0.45 42.72 0.25 42.98 0.25L48.37 0.25C51.19 0.25 53.51 2.47 53.51 5.15 53.51 7.9 51.19 10.15 48.39 10.15L45.52 10.15 45.52 15.36C45.52 15.58 45.32 15.78 45.09 15.78L42.98 15.78C42.72 15.78 42.54 15.58 42.54 15.36L42.54 0.68 42.54 0.68Z" id="Fill-5" fill="#FFFFFF"/>
        <path d="M67.53 15.2L60.46 0.28C60.39 0.14 60.3 0.03 60.07 0.03L59.84 0.03C59.64 0.03 59.52 0.14 59.45 0.28L52.32 15.2C52.18 15.49 52.36 15.78 52.71 15.78L54.7 15.78C54.89 15.78 55.03 15.72 55.14 15.64L58.42 8.73 59.87 5.6 59.94 5.6 62.23 10.48 58.2 10.48C58.01 10.48 57.86 10.63 57.86 10.81 57.86 10.85 57.87 10.89 57.89 10.92L58.74 12.71C58.81 12.8 58.96 12.94 59.29 12.94L63.35 12.94 63.35 12.94 63.36 12.94 63.36 12.94 64.48 15.33C64.64 15.65 64.8 15.78 65.14 15.78L67.14 15.78C67.49 15.78 67.67 15.49 67.53 15.2" id="Fill-6" fill="#FFFFFF"/>
        <path d="M29.37 15.2L22.3 0.28C22.23 0.14 22.14 0.03 21.91 0.03L21.68 0.03C21.47 0.03 21.36 0.14 21.29 0.28L14.15 15.2C14.02 15.49 14.2 15.78 14.54 15.78L16.54 15.78C16.72 15.78 16.87 15.72 16.97 15.64L20.26 8.73 21.7 5.6 21.77 5.6 24.07 10.48 20.04 10.48C19.85 10.48 19.7 10.63 19.7 10.81 19.7 10.85 19.71 10.89 19.72 10.92L20.58 12.71C20.64 12.8 20.79 12.94 21.12 12.94L25.19 12.94 25.19 12.94 25.2 12.94 25.19 12.94 26.32 15.33C26.48 15.65 26.64 15.78 26.98 15.78L28.98 15.78C29.32 15.78 29.51 15.49 29.37 15.2" id="Fill-7" fill="#FFFFFF"/>
        <path d="M75.72 7.33C76.93 7.33 77.99 6.31 77.99 5.07 77.99 3.89 76.93 2.92 75.72 2.92L71.98 2.92 71.98 7.33 75.72 7.33ZM68.97 0.68C68.97 0.45 69.16 0.25 69.41 0.25L75.97 0.25C78.72 0.25 80.97 2.38 80.97 5.02 80.97 7.06 79.57 8.73 77.58 9.5L80.72 15.13C80.88 15.42 80.72 15.78 80.33 15.78L77.92 15.78C77.72 15.78 77.6 15.67 77.55 15.58L74.5 9.7 71.96 9.7 71.96 15.36C71.96 15.58 71.75 15.78 71.52 15.78L69.41 15.78C69.16 15.78 68.97 15.58 68.97 15.36L68.97 0.68 68.97 0.68Z" id="Fill-8" fill="#FFFFFF"/>
      </g>
    </g>
  </g>
</svg>
