<svg xmlns="http://www.w3.org/2000/svg" viewBox="0 0 25.42 25.42"><title>Twitter</title><g id="Layer_2" data-name="Layer 2"><g id="graphics"><path d="M19.13,10.21A8.66,8.66,0,0,1,5.82,17.9a6.14,6.14,0,0,0,4.51-1.26,3,3,0,0,1-2.84-2.12,3,3,0,0,0,1.37,0,3,3,0,0,1-2.44-3,3.06,3.06,0,0,0,1.38.38,3,3,0,0,1-.94-4.06A8.65,8.65,0,0,0,13.13,11a3,3,0,0,1,5.18-2.78,6.17,6.17,0,0,0,1.93-.73A3.07,3.07,0,0,1,18.9,9.12a6.29,6.29,0,0,0,1.75-.48,6.13,6.13,0,0,1-1.52,1.57ZM12.71,0A12.71,12.71,0,1,0,25.42,12.71,12.71,12.71,0,0,0,12.71,0Z" transform="translate(0 0)"/></g></g></svg>